<?xml version="1.0" encoding="utf-8"?>
<!-- Generator: Adobe Illustrator 22.1.0, SVG Export Plug-In . SVG Version: 6.00 Build 0)  -->
<svg version="1.1" id="Layer_1" xmlns="http://www.w3.org/2000/svg" xmlns:xlink="http://www.w3.org/1999/xlink" x="0px" y="0px"
	 viewBox="0 0 504 504" style="enable-background:new 0 0 504 504;" xml:space="preserve">
<style type="text/css">
	.st0{fill:#BBBABA;stroke:#000000;stroke-miterlimit:10;}
</style>
<g>
	<path class="st0" d="M288.9,280.5c-5.2-2.4-12.6-3.7-22.1-3.8h-54.4v59h53.7c9.6,0,17.1-1.3,22.4-3.9c9.7-4.8,14.5-14,14.5-27.6
		C303,292.7,298.3,284.8,288.9,280.5z"/>
	<path class="st0" d="M368.7,117c-39.3-31.7-56.4-49.6-114.9-58.8c-64.6-3.1-110.2,52.5-141.9,85.8c-31.7,39.3-49.6,56.4-58.8,114.9
		c-3.1,64.6,52.5,110.2,85.8,141.9c39.3,31.7,56.4,49.6,114.9,58.8c64.6,3.1,110.2-52.5,141.9-85.8c31.7-39.3,49.6-56.4,58.8-114.9
		C457.5,194.3,402,148.8,368.7,117z M340,342.6c-4.2,6.9-9.4,12.7-15.7,17.4c-7.1,5.4-15.4,9.1-25,11.1s-20,3-31.3,3h-99.7V152.9
		h106.9c27,0.4,46.1,8.2,57.4,23.5c6.8,9.4,10.1,20.7,10.1,33.8c0,13.5-3.4,24.4-10.2,32.6c-3.8,4.6-9.4,8.8-16.9,12.6
		c11.3,4.1,19.8,10.6,25.6,19.5c5.7,8.9,8.6,19.7,8.6,32.4C349.8,320.4,346.5,332.2,340,342.6z"/>
	<path class="st0" d="M289.6,234.6c6-3.7,9-10.1,9-19.4c0-10.3-4-17.1-11.9-20.4c-6.8-2.3-15.6-3.5-26.1-3.5h-48.2v48.8h53.8
		C275.8,240.1,283.6,238.3,289.6,234.6z"/>
</g>
</svg>
