<?xml version="1.0" encoding="utf-8"?>
<!-- Generator: Adobe Illustrator 22.1.0, SVG Export Plug-In . SVG Version: 6.00 Build 0)  -->
<svg version="1.1" id="Layer_1" xmlns="http://www.w3.org/2000/svg" xmlns:xlink="http://www.w3.org/1999/xlink" x="0px" y="0px"
	 viewBox="0 0 53.8 53.8" style="enable-background:new 0 0 53.8 53.8;" xml:space="preserve">
<style type="text/css">
	.st0{fill:#BBBABA;}
</style>
<g>
	<path class="st0" d="M31.2,28.4c-0.6-0.3-1.4-0.4-2.5-0.4h-6.2v6.7h6.1c1.1,0,1.9-0.1,2.6-0.4c1.1-0.5,1.7-1.6,1.7-3.1
		C32.8,29.8,32.3,28.9,31.2,28.4z"/>
	<path class="st0" d="M31.3,23.1c0.7-0.4,1-1.2,1-2.2c0-1.2-0.5-1.9-1.4-2.3c-0.8-0.3-1.8-0.4-3-0.4h-5.5v5.6h6.1
		C29.7,23.8,30.6,23.6,31.3,23.1z"/>
	<path class="st0" d="M26.9,0C12,0,0,12,0,26.9c0,14.8,12,26.9,26.9,26.9c14.8,0,26.9-12,26.9-26.9S41.7,0,26.9,0z M37,35.4
		c-0.5,0.8-1.1,1.4-1.8,2c-0.8,0.6-1.8,1-2.8,1.3c-1.1,0.2-2.3,0.3-3.6,0.3H17.5V13.8h12.2c3.1,0,5.3,0.9,6.5,2.7
		c0.8,1.1,1.2,2.4,1.2,3.8c0,1.5-0.4,2.8-1.2,3.7c-0.4,0.5-1.1,1-1.9,1.4c1.3,0.5,2.3,1.2,2.9,2.2c0.7,1,1,2.2,1,3.7
		C38.2,32.9,37.8,34.3,37,35.4z"/>
</g>
</svg>
