<?xml version="1.0" encoding="utf-8"?>
<!-- Generator: Adobe Illustrator 22.1.0, SVG Export Plug-In . SVG Version: 6.00 Build 0)  -->
<svg version="1.1" id="Capa_1" xmlns="http://www.w3.org/2000/svg" xmlns:xlink="http://www.w3.org/1999/xlink" x="0px" y="0px"
	 viewBox="0 0 550.8 550.8" style="enable-background:new 0 0 550.8 550.8;" xml:space="preserve">
<style type="text/css">
	.st0{fill:#D0CDCC;}
</style>
<g>
	<path class="st0" d="M488.4,197h-13.2v-63.8c0-0.4-0.1-0.8-0.1-1.2c0-2.5-0.8-5-2.6-7L366.3,3.7c0,0-0.1,0-0.1-0.1
		c-0.6-0.7-1.4-1.3-2.2-1.8c-0.2-0.2-0.5-0.3-0.7-0.4c-0.7-0.4-1.4-0.7-2.1-0.9c-0.2-0.1-0.4-0.1-0.6-0.2C359.9,0.1,359,0,358.2,0
		h-261C85.3,0,75.6,9.7,75.6,21.6V197H62.4c-17,0-30.9,13.8-30.9,30.9v160.5c0,17,13.8,30.9,30.9,30.9h13.2v109.9
		c0,11.9,9.7,21.6,21.6,21.6h356.4c11.9,0,21.6-9.7,21.6-21.6V419.3h13.2c17,0,30.9-13.8,30.9-30.9V227.9
		C519.3,210.8,505.5,197,488.4,197z M97.2,21.6h250.2v110.5c0,6,4.8,10.8,10.8,10.8h95.4V197H97.2V21.6z M263.6,318.2
		c-26.8-9.3-44.3-24.2-44.3-47.6c0-27.5,23-48.6,61-48.6c18.2,0,31.6,3.8,41.2,8.1l-8.1,29.4c-6.5-3.1-17.9-7.7-33.8-7.7
		c-15.8,0-23.4,7.2-23.4,15.6c0,10.3,9.1,14.8,29.9,22.7c28.5,10.5,41.9,25.4,41.9,48.1c0,27-20.8,50-65.1,50
		c-18.4,0-36.6-4.8-45.7-9.8l7.4-30.1c9.8,5,24.9,10,40.4,10c16.7,0,25.6-6.9,25.6-17.5C290.6,330.9,283,325.1,263.6,318.2z
		 M73.6,307.7c0-55,39.3-85.7,88.1-85.7c18.9,0,33.3,3.8,39.7,7.2l-7.4,29c-7.4-3.1-17.7-6-30.6-6c-29,0-51.4,17.5-51.4,53.3
		c0,32.3,19.1,52.6,51.7,52.6c11,0,23.2-2.4,30.4-5.3l5.5,28.5c-6.7,3.4-21.8,6.9-41.4,6.9C102.3,388.3,73.6,353.6,73.6,307.7z
		 M453.6,523.4H97.2V419.3h356.4L453.6,523.4L453.6,523.4z M392.1,388.3c-18.4,0-36.6-4.8-45.7-9.8l7.4-30.1c9.8,5,24.9,10,40.4,10
		c16.8,0,25.6-6.9,25.6-17.5c0-10.1-7.7-15.8-27-22.7c-26.8-9.3-44.3-24.2-44.3-47.6c0-27.5,23-48.6,61-48.6
		c18.2,0,31.6,3.8,41.2,8.1l-8.1,29.4c-6.5-3.1-17.9-7.7-33.7-7.7c-15.8,0-23.4,7.2-23.4,15.6c0,10.3,9.1,14.8,29.9,22.7
		c28.5,10.5,41.9,25.4,41.9,48.1C457.2,365.3,436.4,388.3,392.1,388.3z"/>
</g>
</svg>
