<?xml version="1.0" encoding="utf-8"?>
<!-- Generator: Adobe Illustrator 22.1.0, SVG Export Plug-In . SVG Version: 6.00 Build 0)  -->
<svg version="1.1" id="Layer_1" xmlns="http://www.w3.org/2000/svg" xmlns:xlink="http://www.w3.org/1999/xlink" x="0px" y="0px"
	 viewBox="0 0 512 512" style="enable-background:new 0 0 512 512;" xml:space="preserve">
<style type="text/css">
	.st0{fill:#BBBABA;}
	.st1{fill:none;}
</style>
<g id="Layer_1_1_">
</g>
<g id="Layer_4">
	<path class="st0" d="M266.8,216.8c0-0.3,0-0.5,0-0.8c-0.4-52.7-76.4-49.1-76.6-49.1h-19.1c-4.9,0-8.8,3.9-8.8,8.8v154.6
		c0,4.9,3.9,8.8,8.8,8.8h10.6c4.9,0,8.8-3.9,8.8-8.8v-42c0-4.7,3.6-8.5,8.3-8.8C271.7,275.7,267.3,221.6,266.8,216.8z M238.2,220.6
		c0,28-30.7,32.5-42.6,32.4c-2.5,0-4.6-2.1-4.6-4.7V197c0-2.6,2.3-4.7,4.9-4.7C241.9,193,238.2,220.6,238.2,220.6z"/>
	<path class="st0" d="M310.2,339.1c-8.3,0.2-16.5-0.3-24.5-3.2c-5.6-2-9.1-4.8-8.7-11.3c0.3-4.5-0.1-9.1,0.1-13.6
		c0.2-4.2,0.9-7,6.3-3.8c9.5,5.6,20.1,7.7,31.2,6.8c5.5-0.5,10.9-1.3,12.8-7.3c2.1-6.5-1.3-11.4-6.4-14.7c-8-5.1-16.5-9.3-24.6-14.3
		c-21.1-13.2-22.4-35.2-13.8-50.1c6-10.4,15.2-16.9,26.9-18.6c11.7-1.6,23.6-1.4,35.2,1.6c3.9,1,6.2,3.2,6.2,7.4
		c0,5.3,0.1,10.6,0.1,15.9c0.1,5.3-2.4,6.1-6.7,3.8c-8.8-4.6-18.2-5.1-27.9-4.6c-5.1,0.2-8.9,2.5-10.2,7.4
		c-1.2,4.6-0.2,8.8,3.9,12.1c8.1,6.5,18.1,9.7,26.7,15.5c17,11.5,23.3,26.5,18,45.3c-3.8,13.3-18.4,25.4-37.1,25.7
		C315.2,339.1,312.7,339.1,310.2,339.1z"/>
</g>
<line class="st1" x1="100" y1="93" x2="418" y2="93"/>
<line class="st1" x1="418" y1="413" x2="418" y2="93"/>
<line class="st1" x1="100" y1="413" x2="418" y2="413"/>
<line class="st1" x1="100" y1="93" x2="418" y2="93"/>
<line class="st1" x1="100" y1="407" x2="418" y2="407"/>
<path class="st0" d="M67,64v384h384V64H67z M430,423H90V83h340V423z"/>
<rect x="100" y="93" class="st1" width="320" height="320"/>
</svg>
